<svg id="visual" viewBox="0 0 900 600" width="900" height="600" xmlns="http://www.w3.org/2000/svg" xmlns:xlink="http://www.w3.org/1999/xlink" version="1.1"><path d="M0 102L18.8 102.7C37.7 103.3 75.3 104.7 112.8 111.3C150.3 118 187.7 130 225.2 131.2C262.7 132.3 300.3 122.7 337.8 118.5C375.3 114.3 412.7 115.7 450.2 118.2C487.7 120.7 525.3 124.3 562.8 125.3C600.3 126.3 637.7 124.7 675.2 121.2C712.7 117.7 750.3 112.3 787.8 112.8C825.3 113.3 862.7 119.7 881.3 122.8L900 126L900 0L881.3 0C862.7 0 825.3 0 787.8 0C750.3 0 712.7 0 675.2 0C637.7 0 600.3 0 562.8 0C525.3 0 487.7 0 450.2 0C412.7 0 375.3 0 337.8 0C300.3 0 262.7 0 225.2 0C187.7 0 150.3 0 112.8 0C75.3 0 37.7 0 18.8 0L0 0Z" fill="#90aacb"></path><path d="M0 112L18.8 107.8C37.7 103.7 75.3 95.3 112.8 91.5C150.3 87.7 187.7 88.3 225.2 87.8C262.7 87.3 300.3 85.7 337.8 88C375.3 90.3 412.7 96.7 450.2 97.7C487.7 98.7 525.3 94.3 562.8 92.3C600.3 90.3 637.7 90.7 675.2 91.8C712.7 93 750.3 95 787.8 95C825.3 95 862.7 93 881.3 92L900 91L900 0L881.3 0C862.7 0 825.3 0 787.8 0C750.3 0 712.7 0 675.2 0C637.7 0 600.3 0 562.8 0C525.3 0 487.7 0 450.2 0C412.7 0 375.3 0 337.8 0C300.3 0 262.7 0 225.2 0C187.7 0 150.3 0 112.8 0C75.3 0 37.7 0 18.8 0L0 0Z" fill="#5a81c1"></path><path d="M0 70L18.8 69.5C37.7 69 75.3 68 112.8 66.2C150.3 64.3 187.7 61.7 225.2 64.2C262.7 66.7 300.3 74.3 337.8 74.5C375.3 74.7 412.7 67.3 450.2 64.7C487.7 62 525.3 64 562.8 63.2C600.3 62.3 637.7 58.7 675.2 55.2C712.7 51.7 750.3 48.3 787.8 50.3C825.3 52.3 862.7 59.7 881.3 63.3L900 67L900 0L881.3 0C862.7 0 825.3 0 787.8 0C750.3 0 712.7 0 675.2 0C637.7 0 600.3 0 562.8 0C525.3 0 487.7 0 450.2 0C412.7 0 375.3 0 337.8 0C300.3 0 262.7 0 225.2 0C187.7 0 150.3 0 112.8 0C75.3 0 37.7 0 18.8 0L0 0Z" fill="#2d56b2"></path><path d="M0 23L18.8 27.2C37.7 31.3 75.3 39.7 112.8 41C150.3 42.3 187.7 36.7 225.2 35.3C262.7 34 300.3 37 337.8 36.5C375.3 36 412.7 32 450.2 29.2C487.7 26.3 525.3 24.7 562.8 24.3C600.3 24 637.7 25 675.2 27.7C712.7 30.3 750.3 34.7 787.8 33.8C825.3 33 862.7 27 881.3 24L900 21L900 0L881.3 0C862.7 0 825.3 0 787.8 0C750.3 0 712.7 0 675.2 0C637.7 0 600.3 0 562.8 0C525.3 0 487.7 0 450.2 0C412.7 0 375.3 0 337.8 0C300.3 0 262.7 0 225.2 0C187.7 0 150.3 0 112.8 0C75.3 0 37.7 0 18.8 0L0 0Z" fill="#14279b"></path></svg>